<svg xmlns="http://www.w3.org/2000/svg" width="32" height="32" viewBox="0 0 32 32">
  <rect width="32" height="32" rx="6" fill="#212121" />
  <path d="M14.01 15.71L14.01 21.74Q12.01 22.87 9.56 22.87L9.56 22.87Q6.71 22.87 4.96 21.03Q3.20 19.20 3.20 16.18L3.20 16.18Q3.20 13.09 5.15 11.11Q7.10 9.13 10.10 9.13L10.10 9.13Q12.27 9.13 13.74 9.83L13.74 9.83L13.74 11.56Q12.13 10.54 9.92 10.54L9.92 10.54Q7.69 10.54 6.26 12.08Q4.83 13.62 4.83 16.06L4.83 16.06Q4.83 18.59 6.16 20.03Q7.48 21.47 9.76 21.47L9.76 21.47Q11.31 21.47 12.45 20.85L12.45 20.85L12.45 17.12L9.54 17.12L9.54 15.71L14.01 15.71ZM22.46 22.87L22.46 22.87Q19.63 22.87 17.93 21.01Q16.23 19.14 16.23 16.16L16.23 16.16Q16.23 12.95 17.96 11.04Q19.69 9.13 22.68 9.13L22.68 9.13Q25.43 9.13 27.12 10.98Q28.80 12.84 28.80 15.83L28.80 15.83Q28.80 19.09 27.08 20.98Q25.35 22.87 22.46 22.87ZM22.57 10.54L22.57 10.54Q20.47 10.54 19.17 12.05Q17.86 13.56 17.86 16.02L17.86 16.02Q17.86 18.48 19.13 19.97Q20.41 21.47 22.46 21.47L22.46 21.47Q24.65 21.47 25.91 20.04Q27.17 18.61 27.17 16.05L27.17 16.05Q27.17 13.41 25.94 11.98Q24.72 10.54 22.57 10.54Z" fill="#FFF200" />
</svg>
