<svg xmlns="http://www.w3.org/2000/svg" width="32" height="32" viewBox="230 180 210 120">
  <rect x="230" y="180" width="210" height="120" rx="40" fill="#212121" />
  <path fill="#FFF200" d="M267.328491,251.742249 C265.029449,248.262329 262.956909,245.077469 260.323242,241.030396 C277.151154,240.740845 289.277191,229.135986 304.580353,226.464035 C313.979584,224.822922 322.852570,225.501877 329.377045,233.066925 C336.018280,240.767319 335.500610,249.976929 332.470978,259.072876 C330.203278,265.881348 325.989258,271.397461 320.220032,275.712860 C297.048645,293.045258 263.247192,291.011047 245.565857,270.701447 C232.609421,255.819061 229.216644,238.422943 235.798752,219.830765 C242.461945,201.009460 256.212891,190.047699 275.956543,186.469543 C282.497406,185.284134 288.865265,186.189880 295.334351,186.602051 C308.014740,187.409958 320.685486,190.379715 334.051605,186.206161 C332.832947,191.868195 331.614197,196.480270 329.061646,200.555771 C327.106445,203.677567 323.806946,204.278229 320.303833,204.352325 C308.914673,204.593201 297.807709,202.236267 286.598663,200.830322 C279.013519,199.878952 271.483063,198.310089 263.806030,198.371552 C251.817627,198.467529 245.765381,203.849243 244.027847,215.664200 C240.182068,241.815002 255.951721,266.059387 281.344940,273.035675 C299.068176,277.904785 316.707306,271.906219 327.009369,257.561493 C328.786407,255.087097 329.988800,252.402084 330.837860,249.491455 C333.403046,240.697723 327.665924,234.066223 318.610016,235.542755 C313.963867,236.300308 309.735687,238.258530 305.555054,240.387009 C296.071777,245.215195 287.083954,251.048828 276.874603,254.418365 C273.151215,255.647232 270.003448,255.413818 267.328491,251.742249 z"/>
<path fill="#FFF200" d="M344.312988,207.393555 C357.893127,189.754608 375.522919,182.421677 396.841217,187.195877 C418.129547,191.963364 431.673889,205.889572 435.664978,227.442032 C441.651978,259.772583 417.256775,286.759308 387.548065,287.274048 C360.033386,287.750763 338.524139,269.089142 335.192749,241.738144 C333.695374,229.444626 337.116486,217.987518 344.312988,207.393555 M352.846466,249.662659 C359.372101,261.975311 368.716888,271.364014 381.504150,277.123962 C402.543518,286.600952 421.678284,276.754822 425.412415,254.570007 C429.565796,229.894089 406.030518,197.198425 381.372925,193.389511 C360.562286,190.174835 346.415436,202.444519 346.201630,223.627716 C346.110107,232.696579 348.475525,241.027908 352.846466,249.662659 z"/>
</svg>
