<svg xmlns="http://www.w3.org/2000/svg" width="282.28" height="89.55" viewBox="0 0 282.28 89.55">
  <path d="M35.95 32.19L35.95 68.07Q35.95 89.55 15.39 89.55L15.39 89.55Q8.15 89.55 2.74 86.81L2.74 86.81L2.74 80.56Q9.33 84.22 15.31 84.22L15.31 84.22Q29.71 84.22 29.71 68.91L29.71 68.91L29.71 64.64L29.55 64.64Q25.10 72.11 16.15 72.11L16.15 72.11Q8.87 72.11 4.44 66.91Q0 61.71 0 52.95L0 52.95Q0 43.01 4.78 37.14Q9.56 31.28 17.86 31.28L17.86 31.28Q25.75 31.28 29.55 37.60L29.55 37.60L29.71 37.60L29.71 32.19L35.95 32.19ZM29.71 53.56L29.71 53.56L29.71 47.81Q29.71 43.16 26.56 39.85Q23.42 36.53 18.74 36.53L18.74 36.53Q12.95 36.53 9.67 40.74Q6.40 44.95 6.40 52.53L6.40 52.53Q6.40 59.04 9.54 62.95Q12.68 66.85 17.86 66.85L17.86 66.85Q23.12 66.85 26.41 63.12Q29.71 59.38 29.71 53.56ZM51.80 22.29L51.80 22.29Q50.12 22.29 48.94 21.15Q47.76 20.00 47.76 18.25L47.76 18.25Q47.76 16.50 48.94 15.34Q50.12 14.18 51.80 14.18L51.80 14.18Q53.51 14.18 54.71 15.34Q55.91 16.50 55.91 18.25L55.91 18.25Q55.91 19.93 54.71 21.11Q53.51 22.29 51.80 22.29ZM54.84 32.19L54.84 71.19L48.60 71.19L48.60 32.19L54.84 32.19ZM100.78 32.19L100.78 68.07Q100.78 89.55 80.21 89.55L80.21 89.55Q72.97 89.55 67.56 86.81L67.56 86.81L67.56 80.56Q74.15 84.22 80.13 84.22L80.13 84.22Q94.53 84.22 94.53 68.91L94.53 68.91L94.53 64.64L94.38 64.64Q89.92 72.11 80.97 72.11L80.97 72.11Q73.70 72.11 69.26 66.91Q64.82 61.71 64.82 52.95L64.82 52.95Q64.82 43.01 69.60 37.14Q74.38 31.28 82.68 31.28L82.68 31.28Q90.57 31.28 94.38 37.60L94.38 37.60L94.53 37.60L94.53 32.19L100.78 32.19ZM94.53 53.56L94.53 53.56L94.53 47.81Q94.53 43.16 91.39 39.85Q88.25 36.53 83.56 36.53L83.56 36.53Q77.77 36.53 74.50 40.74Q71.22 44.95 71.22 52.53L71.22 52.53Q71.22 59.04 74.36 62.95Q77.50 66.85 82.68 66.85L82.68 66.85Q87.94 66.85 91.23 63.12Q94.53 59.38 94.53 53.56ZM119.67 13.45L119.67 71.19L113.42 71.19L113.42 13.45L119.67 13.45ZM135.51 22.29L135.51 22.29Q133.83 22.29 132.65 21.15Q131.47 20.00 131.47 18.25L131.47 18.25Q131.47 16.50 132.65 15.34Q133.83 14.18 135.51 14.18L135.51 14.18Q137.22 14.18 138.42 15.34Q139.62 16.50 139.62 18.25L139.62 18.25Q139.62 19.93 138.42 21.11Q137.22 22.29 135.51 22.29ZM138.56 32.19L138.56 71.19L132.31 71.19L132.31 32.19L138.56 32.19ZM204.40 34.67L204.40 66.41Q193.86 72.36 180.96 72.36L180.96 72.36Q165.97 72.36 156.72 62.70Q147.47 53.03 147.47 37.11L147.47 37.11Q147.47 20.85 157.75 10.42Q168.03 0 183.80 0L183.80 0Q195.22 0 202.99 3.71L202.99 3.71L202.99 12.79Q194.49 7.42 182.87 7.42L182.87 7.42Q171.10 7.42 163.58 15.53Q156.06 23.63 156.06 36.52L156.06 36.52Q156.06 49.80 163.04 57.40Q170.03 64.99 181.99 64.99L181.99 64.99Q190.19 64.99 196.20 61.72L196.20 61.72L196.20 42.09L180.87 42.09L180.87 34.67L204.40 34.67ZM248.88 72.36L248.88 72.36Q233.99 72.36 225.03 62.55Q216.07 52.73 216.07 37.01L216.07 37.01Q216.07 20.12 225.20 10.06Q234.33 0 250.06 0L250.06 0Q264.56 0 273.42 9.77Q282.28 19.53 282.28 35.30L282.28 35.30Q282.28 52.44 273.20 62.40Q264.12 72.36 248.88 72.36ZM249.47 7.42L249.47 7.42Q238.44 7.42 231.55 15.38Q224.67 23.34 224.67 36.28L224.67 36.28Q224.67 49.22 231.38 57.10Q238.09 64.99 248.88 64.99L248.88 64.99Q260.41 64.99 267.05 57.47Q273.69 49.95 273.69 36.43L273.69 36.43Q273.69 22.56 267.24 14.99Q260.80 7.42 249.47 7.42Z" fill="white" />
</svg>
