<svg version="1.1" id="Layer_1" xmlns="http://www.w3.org/2000/svg" xmlns:xlink="http://www.w3.org/1999/xlink" x="0px" y="0px" width="100%" height="auto" viewBox="0 0 496 496" enable-background="new 0 0 496 496" xml:space="preserve">
<path fill="#FFFFFF" d="M267.328491,251.742249 C265.029449,248.262329 262.956909,245.077469 260.323242,241.030396 C277.151154,240.740845 289.277191,229.135986 304.580353,226.464035 C313.979584,224.822922 322.852570,225.501877 329.377045,233.066925 C336.018280,240.767319 335.500610,249.976929 332.470978,259.072876 C330.203278,265.881348 325.989258,271.397461 320.220032,275.712860 C297.048645,293.045258 263.247192,291.011047 245.565857,270.701447 C232.609421,255.819061 229.216644,238.422943 235.798752,219.830765 C242.461945,201.009460 256.212891,190.047699 275.956543,186.469543 C282.497406,185.284134 288.865265,186.189880 295.334351,186.602051 C308.014740,187.409958 320.685486,190.379715 334.051605,186.206161 C332.832947,191.868195 331.614197,196.480270 329.061646,200.555771 C327.106445,203.677567 323.806946,204.278229 320.303833,204.352325 C308.914673,204.593201 297.807709,202.236267 286.598663,200.830322 C279.013519,199.878952 271.483063,198.310089 263.806030,198.371552 C251.817627,198.467529 245.765381,203.849243 244.027847,215.664200 C240.182068,241.815002 255.951721,266.059387 281.344940,273.035675 C299.068176,277.904785 316.707306,271.906219 327.009369,257.561493 C328.786407,255.087097 329.988800,252.402084 330.837860,249.491455 C333.403046,240.697723 327.665924,234.066223 318.610016,235.542755 C313.963867,236.300308 309.735687,238.258530 305.555054,240.387009 C296.071777,245.215195 287.083954,251.048828 276.874603,254.418365 C273.151215,255.647232 270.003448,255.413818 267.328491,251.742249 z"/>
<path fill="#FFFFFF" d="M344.312988,207.393555 C357.893127,189.754608 375.522919,182.421677 396.841217,187.195877 C418.129547,191.963364 431.673889,205.889572 435.664978,227.442032 C441.651978,259.772583 417.256775,286.759308 387.548065,287.274048 C360.033386,287.750763 338.524139,269.089142 335.192749,241.738144 C333.695374,229.444626 337.116486,217.987518 344.312988,207.393555 M352.846466,249.662659 C359.372101,261.975311 368.716888,271.364014 381.504150,277.123962 C402.543518,286.600952 421.678284,276.754822 425.412415,254.570007 C429.565796,229.894089 406.030518,197.198425 381.372925,193.389511 C360.562286,190.174835 346.415436,202.444519 346.201630,223.627716 C346.110107,232.696579 348.475525,241.027908 352.846466,249.662659 z"/>
<path fill="#FFFFFF" d="M141.996826,289.131348 C146.574799,291.587128 150.821152,290.002747 154.959473,289.045624 C160.962540,287.657318 166.763367,285.560760 172.437149,283.122772 C177.099106,281.119537 181.939957,279.888519 187.027969,281.106049 C199.646011,284.125458 204.798599,301.015991 196.323639,311.422546 C187.539322,322.208954 162.474564,330.808167 145.967575,320.596436 C139.889160,316.836151 135.439438,311.925110 134.600082,304.309174 C142.195587,311.456635 151.394547,313.865112 161.231812,314.205444 C171.160965,314.548950 180.840820,313.355499 189.470596,307.782654 C192.632202,305.740997 195.047501,303.044861 196.506760,299.555634 C198.525421,294.728912 196.257599,290.902832 191.003159,290.394928 C186.178879,289.928619 181.843887,291.800018 177.524475,293.548218 C170.895325,296.231201 164.471115,299.471405 157.398422,300.931488 C144.720474,303.548737 135.614792,297.243256 134.132874,284.951721 C133.660019,281.029785 134.720139,277.338440 137.252197,274.747192 C140.533463,271.389221 139.672394,268.871399 137.792206,265.265320 C128.992279,248.387741 137.766541,229.037811 156.197296,224.346146 C162.526840,222.734924 168.833359,223.417969 174.722137,226.176849 C177.282608,227.376419 179.253693,227.484879 181.637558,225.927216 C183.557617,224.672607 185.731216,223.761185 188.167084,223.664932 C192.010284,223.513107 195.008072,224.884415 196.980362,228.224258 C198.954025,231.566467 196.451706,233.765808 194.871994,236.904602 C191.466904,232.484390 188.933365,227.094315 182.223343,229.783234 C182.325256,231.827057 183.981918,232.650772 184.979874,233.880753 C193.690872,244.616714 193.405380,260.563812 184.274033,270.635193 C174.434128,281.488098 158.863541,283.705444 147.158463,275.939819 C145.334610,274.729797 143.724304,272.233643 141.122574,274.483948 C138.604660,276.661774 137.053116,279.392700 137.681808,282.828888 C138.143677,285.353210 139.451233,287.486755 141.996826,289.131348 M146.503708,235.246017 C142.755112,248.881241 150.973358,267.919891 163.324814,274.214417 C171.183655,278.219391 177.850845,275.191162 179.650833,266.799194 C182.464310,253.682098 174.115677,235.937057 162.257294,229.829147 C155.532211,226.365265 150.585129,227.870239 146.503708,235.246017 z"/>
<path fill="#FFFFFF" d="M71.640610,225.219864 C79.487305,222.699341 86.813942,223.167404 93.884987,226.464645 C96.103920,227.499344 97.858315,227.446732 99.885857,226.053299 C102.547447,224.224091 105.557076,223.269699 108.873253,223.761734 C112.082802,224.237946 114.629753,225.908157 115.801125,228.849457 C116.983452,231.818268 115.213470,234.151627 112.935265,236.664444 C110.059105,232.130219 107.453278,227.357574 101.022285,229.693283 C100.782722,231.900055 102.476196,232.785889 103.443741,234.015594 C112.258423,245.218872 111.877502,260.479340 102.451729,271.153473 C93.379059,281.427765 77.977547,283.553253 66.039383,276.152649 C63.609226,274.646179 61.461788,271.800476 58.450829,275.459778 C55.750431,278.741669 55.336983,283.876312 58.051033,286.971466 C60.513378,289.779541 63.657200,290.848480 67.463531,290.267303 C74.421692,289.204803 81.047943,287.067902 87.565643,284.511475 C89.889038,283.600189 92.166069,282.539764 94.543289,281.802094 C103.307274,279.082642 110.890030,281.349670 115.452797,287.928955 C120.368881,295.017731 120.031990,304.813873 114.635513,311.692627 C103.458755,325.939362 75.009583,329.406616 60.979919,318.138672 C56.681099,314.686096 53.386730,310.508209 52.624836,303.591492 C67.329353,316.317291 83.258408,315.774689 99.597527,311.654480 C105.520844,310.160797 110.617607,306.928619 114.018272,301.587524 C115.699196,298.947479 116.702942,296.001648 114.892136,293.148102 C113.200905,290.483002 110.255699,290.098724 107.315788,290.365387 C101.404037,290.901611 96.132973,293.441010 90.789513,295.755585 C83.752571,298.803711 76.720886,301.906860 68.762062,301.315277 C62.078560,300.818481 56.921238,297.901245 54.300426,291.550537 C51.557655,284.904297 51.750210,278.389679 57.072487,273.027985 C59.102821,270.982574 58.859886,269.690582 57.574001,267.525818 C47.725399,250.945770 53.459732,233.425339 71.640610,225.219864 M98.657570,264.025574 C98.878448,249.889236 93.758865,238.241577 81.742867,230.489059 C73.088219,224.905197 64.836723,229.397629 64.160942,239.683029 C63.291573,252.914673 68.307449,263.764557 78.605415,271.960358 C88.221451,279.613464 95.737137,276.820435 98.657570,264.025574 z"/>
<path fill="#FFFFFF" d="M199.998260,268.992828 C199.788361,241.234467 200.504501,213.968811 199.421478,186.188690 C203.788742,185.267944 208.236984,185.669464 212.646454,185.860657 C214.655716,185.947784 214.740250,187.461945 214.597183,189.150970 C212.432404,214.708694 213.783722,240.322647 213.495117,265.910278 C213.418549,272.697113 214.202072,279.493683 214.621094,286.817352 C209.414185,287.812378 204.451721,287.333832 199.996353,287.072083 C199.996353,280.737885 199.996353,275.114685 199.998260,268.992828 z"/>
<path fill="#FFFFFF" d="M224.006271,223.655334 C225.807800,223.655136 227.140381,223.679108 228.472168,223.656540 C230.983841,223.613968 232.049408,224.585983 231.711578,227.303802 C230.291870,238.725037 230.261856,250.208572 230.378189,261.698120 C230.461975,269.973999 230.394501,278.251373 230.394501,286.999237 C226.997986,287.867371 222.690750,287.277313 218.422470,287.227814 C216.475647,287.205231 215.971939,285.904449 216.119888,284.147552 C217.785294,264.372437 216.931870,244.583939 216.464340,224.623184 C218.555450,222.968063 221.150146,223.963531 224.006271,223.655334 z"/>
<path fill="#FFFFFF" d="M132.295715,248.002472 C132.658142,259.950439 131.452103,271.438324 133.194962,282.853851 C133.661392,285.908997 132.571411,287.306427 129.157928,287.423950 C117.990318,287.808411 118.444191,287.939026 118.522270,276.725189 C118.632103,260.949554 119.677032,245.132935 117.786903,229.393036 C117.264618,225.043747 118.663368,223.537857 123.135193,223.559708 C133.051147,223.608170 132.954422,223.390533 132.421722,233.036285 C132.156082,237.846161 132.323883,242.679977 132.295715,248.002472 z"/>
<path fill="#FFFFFF" d="M119.192108,213.550903 C120.770531,210.118942 123.175148,208.585785 126.535919,209.107208 C129.441910,209.558075 131.298035,211.439667 131.901978,214.320175 C132.513351,217.236130 131.310028,219.497360 128.958099,221.205109 C127.055511,222.586563 124.901619,223.056335 122.884026,221.843399 C119.985069,220.100632 118.272194,217.556808 119.192108,213.550903 z"/>
<path fill="#FFFFFF" d="M217.589203,215.115692 C218.314713,210.654190 220.808716,208.512192 224.871033,209.157257 C228.561386,209.743256 230.666504,212.183990 230.282684,216.178009 C229.937363,219.771515 227.920898,222.167465 224.345734,222.304321 C219.948273,222.472687 217.865967,219.709778 217.589203,215.115692 z"/>
</svg>
